<?xml version="1.0" encoding="UTF-8" standalone="no"?>
<svg width="640" xmlns="http://www.w3.org/2000/svg" height="480">
 <path id="path1194" d="m246.78 9.1202c-8.6044 0-17.101 0.48762-25.47 1.3742-21.949 1.7821-41.802 5.8633-55.207 11.956l-0.0547 0.0275h-0.027344c-0.588 0.38703-0.98721 0.74243-1.5593 1.1269-7.2958 2.0938-14.016 4.9605-20.162 8.5478-79.118 37.646-133.91 117.51-134.62 210.1-0.021698 0.084686-0.060668 0.16257-0.082055 0.24738v0.13742c-0.002149 0.28897 0.052155 0.56438 0.054717 0.85205-0.000485 0.19347-0.027378 0.38359-0.027378 0.57716 0 45.597 13.18 88.14 35.893 124.18 2.0457 4.9422 5.3236 9.6767 9.6845 14.21 31.509 42.726 77.217 74.508 130.22 88.556 19.582 5.1903 40.138 7.9981 61.362 7.9981 7.213 0 14.343-0.36374 21.393-0.9895 0.23645-0.022919 0.47797-0.012299 0.7113-0.054901 7.8543-0.72055 15.584-1.809 23.199-3.2707 17.237-2.7039 33.11-7.1269 45.44-13.55 29.19-11.998 55.447-29.592 77.393-51.452 0.066376-0.061829 0.12524-0.13046 0.1915-0.19241 11.666-10.901 21.718-23.285 30.066-36.775 24.491-36.966 38.765-81.159 38.765-128.66 0-50.944-16.427-98.075-44.264-136.57-0.32666-0.45046-0.65253-0.8989-0.98483-1.3468-25.962-35.375-61.614-63.296-103.11-79.926-0.026672-0.010712-0.055359-0.016796-0.082092-0.027504-15.653-8.1011-36.953-12.977-59.529-15.227-9.5736-1.1668-19.3-1.8415-29.19-1.8415zm-4.7875 1.4567c4.2543-0.057162 8.5487-0.036198 12.83 0.082476 6.2245 0.1725 12.412 0.59608 18.548 1.1544 1.0539 0.11718 2.0965 0.2814 3.1461 0.41228-7.6827 0.83603-16.434 5.4401-26.181 13.77-0.064072 0.011299-0.12741 0.016134-0.19153 0.027502-0.83211-0.23661-1.6249-0.50887-2.4621-0.74211l-0.1368-0.055-0.1368 0.0275c-0.79896 0.16829-1.5582 0.35066-2.3527 0.52219-3.3955-4.4159-6.6564-8.0945-9.6571-10.334-3.1457-2.348-6.1256-3.5619-8.8911-3.6555-0.92183-0.03119-1.833 0.061337-2.7084 0.27486-3.5013 0.85411-6.514 3.6114-9.1099 7.8882-0.16942 0.27907-0.29906 0.69719-0.4651 0.98944-6.8875-0.91722-13.546-1.4936-19.807-1.4842-6.6164 0.009945-12.779 0.67094-18.712 1.6491 14.996-4.6859 30.605-7.929 46.726-9.5648 0.06456-0.006573 0.12689-0.021004 0.19147-0.027503 6.3392-0.48985 12.79-0.84608 19.369-0.9345zm-15.512 2.3087c2.4926 0.082513 5.236 1.177 8.2619 3.4356 2.7968 2.0876 5.9196 5.5637 9.1647 9.7297-0.84894 0.1855-1.673 0.38797-2.5169 0.5772-9.1237-2.5492-17.798-4.3996-26.017-5.552 0.091614-0.15689 0.15362-0.39716 0.24622-0.54969 2.5083-4.1325 5.3376-6.6334 8.4534-7.3934 0.77893-0.18999 1.5766-0.27486 2.4074-0.24736zm53.155 0.2474c1.3077 0.020967 2.5675 0.17187 3.8026 0.41228 5.2843 1.0285 9.9668 4.0814 14.089 8.8227-1.0997-0.040611-2.1124-0.17146-3.2282-0.19238-12.85-0.24093-26.829 0.9329-41.856 3.4631 10.372-8.5364 19.466-12.63 27.193-12.506zm8.6449 0.8521c16.326 2.871 32.071 7.3728 47.054 13.385 1.1454 0.59907 2.1208 1.2907 3.2008 1.9239-11.763-3.8948-24.998-6.1563-39.531-6.8163-3.2006-3.8838-6.7669-6.7727-10.724-8.4928zm-105.43 3.8479c-0.92044 0.25508-1.8472 0.50379-2.7631 0.76958 0.90901-0.26297 1.8239-0.51864 2.7631-0.76958zm11.599 2.6935c6.0962-0.00379 12.584 0.57198 19.287 1.4567-1.2387 2.3328-2.395 5.0226-3.447 8.0806-27.009 3.3286-50.64 9.0722-71.211 16.793 5.3542-6.7208 13.864-14.083 25.552-21.988 0.82764-0.30435 1.6576-0.61162 2.4896-0.907 8.3682-2.1675 17.401-3.4294 27.33-3.4356zm20.408 1.5941c7.6684 1.0654 15.755 2.7383 24.238 5.0297-0.76581 0.17576-1.5364 0.34346-2.298 0.52222-8.715 0.53081-17.195 1.2523-25.305 2.2263 1.0415-2.9671 2.1572-5.5568 3.3649-7.7782zm79.418 1.1269c1.4482 0.026457 2.7651 0.21498 4.1856 0.27483 2.1112 2.6206 3.995 5.9018 5.7998 9.4274-15.054-2.6403-31.273-4.4387-48.696-5.3321-1.0201-0.30306-2.036-0.60905-3.064-0.907 15.014-2.536 28.973-3.6971 41.774-3.4631zm5.663 0.3573c16.315 0.8273 30.798 3.8532 43.553 8.7677 6.3772 5.3475 11.091 10.38 14.445 15.117-15.591-6.0214-33.005-10.851-52.334-14.32-1.757-3.5282-3.5923-6.8664-5.6629-9.5648zm-52.389 2.776c0.056412 0.015682 0.10786 0.039223 0.16418 0.054939-0.43578 0.081051-0.84813 0.13644-1.2858 0.21989 0.38139-0.081364 0.73921-0.1942 1.1216-0.27483zm-87.105 0.1374c-10.577 7.5161-18.414 14.567-23.254 21.081-5.9875 2.3043-11.775 4.7317-17.235 7.366 6.6073-8.4828 14.456-15.589 23.554-21.136 5.5191-2.6638 11.185-5.071 16.934-7.311zm84.205 0.5222c0.043091 0.056852 0.093719 0.10765 0.13678 0.16488-0.34474 0.015162-0.6683 0.066622-1.0122 0.082476-0.019531-0.005703-0.035172-0.021835-0.054733-0.027502 0.31366-0.068811 0.61581-0.15157 0.93013-0.21986zm5.8818 0.2199c0.14825 0.042421 0.28961 0.094923 0.43771 0.13745-0.19333-0.00803-0.38088-0.019712-0.57449-0.027502 0.044937-0.039013 0.091888-0.071072 0.13678-0.10994zm-3.2555 1.0719c0.1024 0.003475 0.19859 0.023991 0.30095 0.027502-0.035568 0.032476-0.073868 0.049862-0.10944 0.082443-0.062775-0.03912-0.12869-0.070831-0.19151-0.10994zm1.8876 0.0825c2.0983 0.079172 4.1461 0.19719 6.2101 0.30233 19.964 5.937 38.427 12.821 55.426 20.559 0.67752 2.2413 1.2528 4.7323 1.8604 7.1461-9.8174-1.2591-19.807-2.1769-29.902-2.7485-10.711-8.713-22.15-16.935-34.361-24.599 0.26323-0.23992 0.50438-0.42556 0.76596-0.65964zm-6.7299 0.0275c-12.688 6.2615-24.621 13.173-35.838 20.641 0.75095-4.1764 1.6005-8.062 2.5168-11.599 0.12625-0.48714 0.28102-0.845 0.41038-1.3193 8.886-2.6998 18.105-5.1545 27.658-7.3934 1.7494-0.10522 3.4783-0.24301 5.2526-0.32984zm2.0518 0.1649c0.57715 0.17065 1.1152 0.29089 1.6961 0.46725 0.06871 0.095865 0.12266 0.17806 0.19151 0.27483-0.16295 0.15289-0.30162 0.25727-0.46506 0.41228h-0.02739l-0.0273 0.0275c-6.1454 6.9528-11.86 15.032-17.235 23.884-7.7163 0.41888-15.372 1.0302-22.953 1.7865 0.24722-1.6352 0.44241-3.3643 0.71124-4.9198 11.882-7.9649 24.559-15.337 38.109-21.933zm15.512 0.3298c15.998 0.97529 30.927 2.7452 44.866 5.2222 0.71216 1.4571 1.4976 2.7208 2.1612 4.3151 1.1941 2.8689 2.2481 6.0888 3.2829 9.3724-15.554-7.0331-32.305-13.37-50.31-18.91zm-29.518 0.2199c-7.0518 1.7596-13.866 3.6994-20.545 5.7169 0.38382-1.338 0.79352-2.5945 1.2037-3.8204 6.2744-0.76089 12.701-1.4001 19.342-1.8965zm16.578 1.0719c0.37801 0.54364 0.71115 0.88561 1.0943 1.4567 0.01268 0.018883 0.014709 0.036058 0.027374 0.054974 2.365 6.8118 4.6108 13.936 6.7846 21.191-1.8529 0.003613-3.701-0.024342-5.5535 0-5.6216 0.073853-11.255 0.23439-16.852 0.49472-0.852 0.039639-1.6932 0.12107-2.5442 0.16492 5.2129-8.5115 10.713-16.328 16.633-23.032 0.13896-0.13188 0.27173-0.19955 0.41031-0.32984zm1.532 0.2199c11.434 7.2172 22.174 14.968 32.281 23.115-8.2242-0.4314-16.501-0.62952-24.786-0.63217-2.2128-7.3988-4.4823-14.66-6.894-21.603l-0.0274-0.055-0.0273-0.0824c-0.19318-0.2888-0.3553-0.46016-0.54712-0.74208zm94.136 0.055c2.4338 1.074 4.8601 2.1458 7.2496 3.2982-1.8883-0.8507-3.8853-1.5732-5.8544-2.3362-0.15543-0.13015-0.28043-0.25431-0.43771-0.38481l-0.0273-0.0275c-0.28525-0.19788-0.6391-0.35473-0.93014-0.54969zm-132.82 0.7146c-0.43108 1.3143-0.85815 2.6072-1.2584 4.0403-29.18 8.9159-54.816 20.234-77.065 33.394-0.54758-3.0663-0.38724-6.307 0.71129-9.7846 1.0327-3.269 2.9476-6.7434 5.6356-10.389 20.698-7.9268 44.586-13.851 71.977-17.26zm136.57 2.3362c14.913 6.2215 27.408 15.052 37.616 26.001-7.5482-4.1326-15.653-7.9496-24.32-11.379-3.0591-4.6235-7.4797-9.4914-13.296-14.622zm-40.27 0.8246c19.571 3.5573 37.138 8.523 52.827 14.704 3.846 5.9093 5.5259 11.328 5.2799 16.244-0.028503 0.57004-0.1683 1.1182-0.24618 1.6766-0.51166-0.15229-0.9906-0.34506-1.5047-0.49471-9.0143-2.6243-18.417-4.8149-28.068-6.6514-7.2846-3.9571-14.881-7.7653-22.788-11.379-1.133-3.69-2.3354-7.2203-3.6659-10.417-0.56268-1.352-1.2335-2.4236-1.833-3.683zm-97.966 2.1988c-0.060928 0.22959-0.13129 0.39976-0.19154 0.63213-0.99455 3.8387-1.8535 8.1296-2.6536 12.698-3.2037 2.1547-6.354 4.3525-9.4383 6.5964-21.671 2.5888-42.421 6.5154-61.28 11.571 21.379-12.354 45.884-22.99 73.564-31.498zm147.48 0.1374c2.3759 1.2266 4.7305 2.4895 7.0582 3.7929 21.153 11.845 40.284 26.8 56.739 44.278-9.35-8.6578-20.176-16.527-32.446-23.527-7.0003-7.9645-14.999-15.016-24.293-20.751-2.2368-1.3803-4.6842-2.5556-7.0582-3.7929zm-219.57 0.852c-6.6846 5.0172-12.686 10.864-17.837 17.645-0.22081 0.29065-0.41119 0.61336-0.62922 0.90696-23.166 11.524-41.574 25.941-55.617 42.464 20.143-25.031 45.33-45.878 74.083-61.017zm-0.1094 11.626c-2.211 3.229-3.8444 6.3595-4.7875 9.3449-1.1889 3.7636-1.3717 7.3328-0.71129 10.692-6.9801 1.963-13.773 4.0285-20.135 6.294-1.2664 0.45097-2.4264 0.93939-3.6658 1.4018 3.3284-7.2292 7.216-13.909 11.682-19.954 5.5873-2.7702 11.46-5.3605 17.618-7.7783zm224.74 0.5497c9.2142 3.7147 17.711 7.8809 25.634 12.396 1.1524 1.3169 2.3829 2.5586 3.4743 3.9304 3.7339 4.6927 7.0597 9.7401 10.095 15.034-10.715-5.4066-22.394-10.004-34.853-13.77 0.095947-0.64701 0.24039-1.2881 0.27356-1.9514 0.24225-4.84-1.2359-10.049-4.6233-15.639zm-48.586 0.1924c6.5306 3.0046 12.913 6.1036 19.013 9.3449-5.7106-1.0295-11.504-1.9228-17.372-2.6935-0.55319-2.2172-1.0293-4.5739-1.6414-6.6514zm-107.02 1.4292c-0.22673 1.3465-0.41835 2.8018-0.6292 4.2052-2.1072 0.21495-4.2273 0.39204-6.3195 0.63217 2.2846-1.6394 4.5992-3.2464 6.9487-4.8374zm44.237 2.666c1.9614-0.02573 3.9201 0.002468 5.8818 0 4.8527 16.312 9.2278 33.58 13.131 51.562-9.3961 0.56106-18.967 0.78735-28.479 0.60467-11.508-0.22105-22.848-1.0534-33.704-2.3637 6.6923-18.182 14.389-34.754 23.035-49.088 1.1155-0.05925 2.2203-0.16791 3.3376-0.21986 5.585-0.25977 11.188-0.42121 16.797-0.49472zm7.0034 0c8.6715 0.008762 17.336 0.23498 25.935 0.71457 13.127 10.702 25.048 22.158 35.975 34.136 0.33942 3.01 0.6831 6.0168 0.95752 9.1525-14.723 3.836-31.8 6.4021-49.735 7.5309-3.8965-17.965-8.2869-35.22-13.131-51.534zm-28.534 0.797c-8.5636 14.318-16.167 30.826-22.788 48.868-1.1573-0.1443-2.3034-0.31054-3.447-0.46726 0.64023-17.563 1.878-33.327 3.83-46.642 7.4032-0.74364 14.872-1.338 22.406-1.7591zm56.356 0.055c9.6995 0.58186 19.293 1.4739 28.725 2.6935 2.1602 8.8385 3.8677 18.724 5.1432 29.519-10.361-11.257-21.56-22.085-33.868-32.212zm-79.883 1.814c-1.9366 13.294-3.1952 28.967-3.83 46.395-16.827-2.3742-31.966-6.1172-43.826-11.159 11.891-12.284 25.134-23.78 39.64-34.356 2.661-0.31676 5.3297-0.60366 8.0157-0.87953zm109.78 1.0444c6.7721 0.89674 13.472 1.917 20.026 3.1608 9.1252 4.9613 17.747 10.164 25.907 15.612-3.3223 4.5432-8.4401 8.6136-15.101 12.148-5.3657 2.8474-11.774 5.3178-18.794 7.4759-2.2254-2.5993-4.4892-5.1722-6.8119-7.7233-1.2763-11.211-3.0004-21.492-5.2253-30.673zm-120.1 0.1374c-14.024 10.366-26.825 21.618-38.382 33.587-5.0503-2.219-9.6543-4.5994-13.268-7.311-4.6044-3.4547-7.9168-7.2869-9.6844-11.489-0.36583-0.86954-0.61633-1.7644-0.84807-2.666 19.028-5.2876 40.101-9.3868 62.183-12.121zm-77.694 0.1374c-4.2141 5.9511-7.8914 12.472-11.052 19.487-18.548 7.0484-34.011 15.327-44.729 24.682 0.68554-0.84868 1.3167-1.718 2.0244-2.5561 13.607-16.113 31.418-30.224 53.757-41.612zm221.24 3.573c8.4546 1.6963 16.706 3.6518 24.649 5.9642 0.57077 0.16621 1.1011 0.3803 1.6688 0.54973-0.53021 2.6614-1.5989 5.1687-3.2008 7.5584-7.3172-4.8893-15.029-9.5719-23.117-14.072zm51.814 2.3087c17.197 10.214 31.387 22.214 42.677 35.62 2.1259 2.5245 4.1448 5.1048 6.0733 7.7233 1.7405 2.3631 3.3692 4.7662 4.9516 7.2011-10.541-13.108-24.7-23.867-41.391-32.515-3.2594-5.8458-6.8779-11.403-10.97-16.546-0.4162-0.52309-0.91544-0.96892-1.3405-1.4842zm-24.43 4.535c12.891 3.9076 24.975 8.6552 35.947 14.32 6.8054 12.287 11.799 26.043 15.128 40.843-14.997-16.996-33.075-32.947-54.441-47.329 1.6527-2.465 2.7974-5.0624 3.365-7.8332zm-234.15 1.9514c0.24004 0.92052 0.50305 1.8358 0.87543 2.721 1.8654 4.4342 5.3262 8.3916 10.04 11.928 3.6104 2.7089 8.1467 5.0994 13.104 7.311-21.834 22.793-39.123 48.11-52.416 74.484-1.0519 0.33331-2.1609 0.61952-3.2008 0.96198-2.7474 0.90482-5.3004 1.944-7.9609 2.9134-0.9446-29.354 2.1449-56.882 10.013-80.091 9.0747-7.1283 18.928-13.881 29.546-20.229zm-3.7206 0.962c-8.9102 5.4821-17.288 11.242-25.086 17.288 1.2547-3.5374 2.6213-6.9568 4.1036-10.279 1.5628-0.59103 3.0431-1.214 4.6507-1.7865 5.2024-1.8527 10.704-3.57 16.332-5.2222zm233.88 5.7719c21.908 14.735 40.349 31.128 55.535 48.593 3.5057 16.472 4.8654 34.221 4.4866 52.606-1.7488-0.74086-3.3651-1.5384-5.1705-2.2538-13.663-5.414-29.031-9.9971-45.386-13.907-11.603-22.632-26.06-44.567-43.525-65.112 6.9026-2.149 13.242-4.5909 18.576-7.4209 6.7631-3.589 12.034-7.7719 15.484-12.506zm-256.31 1.7865c-1.5635 3.5792-3.0183 7.2318-4.3224 11.049-22.442 17.686-40.254 37.584-53.73 58.708-2.608-7.8765-2.767-16.412 0.02734-25.698 0.18322-0.52988 0.52554-1.0403 0.73867-1.5666 2.4815-4.3121 5.1965-8.5369 8.1524-12.643 10.214-11.334 27.404-21.475 49.134-29.849zm297.97 4.6724c20.319 10.774 36.692 24.746 47.136 42.299 2.8584 12.971 0.18533 24.441-6.812 34.576-7.1476-12.056-15.586-23.813-25.387-35.126-3.2273-15.094-8.1537-29.159-14.937-41.75zm-83.056 6.6239c1.8752 2.078 3.688 4.1841 5.4988 6.294-1.5201 0.45432-3.1508 0.84167-4.7328 1.2643-0.2265-2.5773-0.49533-5.0645-0.76602-7.5584zm-219.84 1.6491c-7.5783 23.138-10.547 50.318-9.575 79.267-6.2728 2.3176-12.301 4.79-18.028 7.4759-7.1904-4.7996-13.182-10.038-17.7-15.721-3.2396-4.0746-5.6893-8.3958-7.3591-12.918 13.205-20.884 30.659-40.551 52.662-58.103zm56.137 0.962c12.082 5.2157 27.502 9.0125 44.62 11.406-0.15985 4.5976-0.30566 9.2837-0.38301 14.1-3.338 10.254-6.3905 20.89-9.1646 31.828-31.11 2.7478-60.865 8.0822-87.078 16.244 13.238-26.045 30.385-51.064 52.006-73.577zm169.94 4.59c17.314 20.317 31.645 42.018 43.197 64.397-14.888-3.5047-30.59-6.4322-46.918-8.6303 0.30872-19.334-0.24915-37.596-1.6688-54.283 1.8153-0.48364 3.6533-0.95853 5.3894-1.4842zm-6.4562 1.759c1.4028 16.557 1.9402 34.686 1.6414 53.87-14.065-1.8654-28.516-3.1874-43.142-4.0403-2.4252-14.373-5.0972-28.56-8.0704-42.354 17.845-1.1269 34.846-3.6493 49.571-7.4759zm-117.77 5.1947c1.0256 0.13932 2.055 0.28289 3.0914 0.41227-1.194 3.2837-2.2612 6.7359-3.3923 10.114 0.073654-3.6001 0.18002-7.0541 0.30092-10.527zm4.2403 0.5497c10.978 1.3265 22.443 2.1675 34.087 2.3912 9.605 0.1845 19.266-0.036156 28.752-0.60465 2.9691 13.765 5.6468 27.896 8.0703 42.244-5.1611-0.29147-10.32-0.60759-15.512-0.76958-7.1503-0.22308-14.312-0.32877-21.475-0.30234-12.861 0.047424-25.687 0.5262-38.355 1.4018-0.16608-10.536-0.32188-21.012-0.16412-30.811 1.4939-4.5779 2.9889-9.1431 4.596-13.55zm-158.7 14.43c-0.20786 0.44858-0.44189 0.89496-0.62922 1.3468-12.438 21.542-19.038 45.476-20.709 70.389-3.9369 11.008-6.8964 22.14-8.8638 33.339-2.5429 4.4792-4.5788 9.192-6.128 14.1 1.0359-43.747 14.193-84.53 36.33-119.18zm152.95 2.5286c-0.10414 8.7844 0.069626 18.133 0.21887 27.485-2.7405 0.19486-5.4574 0.45265-8.1798 0.6871 2.4509-9.6305 5.0719-19.069 7.9609-28.172zm-155.39 4.4526c-1.8798 8.4145-1.4306 16.281 1.149 23.555-7.6358 12.146-13.837 24.689-18.685 37.462 1.8853-21.454 7.5766-42.087 17.536-61.017zm373.34 1.1269c9.3588 10.964 17.422 22.35 24.293 33.999-1.0507 1.4514-2.191 2.8645-3.4196 4.2602-4.2655 4.8456-9.7795 9.2848-16.004 13.44-0.2742-0.11906-0.54514-0.23889-0.82074-0.35732 0.39853-17.886-0.78992-35.206-4.0489-51.342zm33.348 1.5117c12.315 24.554 17.653 51.882 17.18 80.036-1.0364-1.1344-2.0644-2.2757-3.2008-3.3807-0.79868-0.77654-1.807-1.4917-2.6537-2.2538-4.7603-14.176-11.12-28.2-19.123-41.86 6.7391-9.5853 9.6222-20.466 7.7968-32.542zm3.0914 3.8204c17.251 31.467 27.355 67.314 28.315 105.38-1.0726-10.113-5.6662-19.48-13.159-28.035 0.59787-27.054-4.0969-53.427-15.156-77.343zm-214.73 16.216c7.1504-0.026627 14.31 0.052155 21.448 0.27486 5.2618 0.16415 10.5 0.47206 15.73 0.76955 3.585 21.361 6.4102 43.148 8.809 64.864-13.55 0.87802-27.326 1.2594-41.09 1.1544-13.672-0.10428-27.32-0.71646-40.708-1.7865-0.94134-14.426-1.6755-28.715-2.1612-42.629-0.25551-7.3201-0.26421-14.167-0.383-21.246 12.662-0.87428 25.497-1.3538 38.355-1.4018zm38.273 1.0994c14.573 0.85512 28.942 2.2065 42.951 4.0678-0.097443 5.6687-0.22852 11.388-0.46509 17.206-0.53601 13.179-1.4415 26.721-2.6537 40.375-10.131 1.3028-20.48 2.3462-31.023 3.0508-2.3931-21.671-5.234-43.376-8.809-64.7zm-77.722 0.3848c0.11998 7.0715 0.12776 13.906 0.38301 21.218 0.48421 13.872 1.1984 28.114 2.1338 42.492-7.8243-0.64206-15.502-1.5026-23.09-2.4737 2.4932-16.355 5.4593-32.562 9.0552-48.264 0.94894-4.1438 2.01-8.1876 3.0366-12.258 2.8246-0.24469 5.6364-0.5126 8.4807-0.71462zm-153.94 0.6322c1.7022 4.3574 4.0771 8.5292 7.1949 12.451 4.4883 5.6452 10.377 10.837 17.399 15.584-18.167 8.6591-33.427 19.161-44.373 31.745-0.23181-6.6257-0.13446-13.19 0.30093-19.707 4.9043-13.672 11.386-27.095 19.478-40.073zm144.31 0.1924c-0.99533 3.9595-2.0322 7.8732-2.9546 11.901-3.6027 15.732-6.5854 31.966-9.0826 48.346-30.344-3.9551-58.427-10.457-80.895-19.652-1.6298-0.66698-3.0535-1.4218-4.6234-2.1164 3.0277-7.4201 6.4085-14.757 10.068-22.043 26.253-8.2721 56.177-13.656 87.488-16.436zm131.4 2.9958c16.594 2.2381 32.544 5.2086 47.629 8.7952 5.722 11.202 10.701 22.552 15.046 33.971-19.372 6.5378-41.771 11.394-65.794 14.54 1.2034-13.598 2.1198-27.083 2.6537-40.21 0.23514-5.781 0.36618-11.462 0.46509-17.096zm120.84 8.1356c7.5522 12.95 13.652 26.215 18.275 39.633-9.7166-8.3814-22.276-15.863-37.096-22.4 6.0306-4.0858 11.414-8.441 15.621-13.22 1.1487-1.305 2.2021-2.6548 3.2008-4.0128zm-71.785 1.0169c15.952 3.8522 30.95 8.3458 44.291 13.633 1.9409 0.76909 3.6791 1.6204 5.5535 2.4187-0.008484 0.34061 0.009766 0.67587 0 1.0169-7.9706 5.0675-17.222 9.622-27.631 13.605-2.3979 0.91763-5.0146 1.7238-7.5232 2.5836-4.2518-11.178-9.1244-22.285-14.691-33.257zm-269.41 4.7274c-3.3749 6.7779-6.4971 13.61-9.3288 20.504-0.48408-5.6566-0.89582-11.279-1.0943-16.821 2.7544-1.0079 5.4114-2.0846 8.2619-3.0233 0.70267-0.2314 1.453-0.43245 2.1612-0.65964zm-11.517 4.0953c0.20394 5.4838 0.61292 11.063 1.0943 16.656-6.54-2.9854-12.661-6.1488-18.001-9.6197 5.392-2.5054 11.024-4.8534 16.907-7.0361zm-18.165 7.5858c5.6944 3.7507 12.302 7.1244 19.342 10.307 0.021523 0.24016 0.032707 0.47427 0.054718 0.7146-15.782 39.272-22.824 79.898-21.886 117.55-8.5336-3.6988-16.212-7.819-23.144-12.231-7.3666-17.442-12.99-35.345-16.305-53.293-1.8768-10.161-3.0143-20.329-3.447-30.398 10.994-12.976 26.633-23.786 45.386-32.652zm350.99 0.5497c15.708 6.8726 28.923 14.767 38.82 23.637 2.3624 7.0789 4.3013 14.179 5.8818 21.301-0.62729 6.6633-1.5616 13.352-2.7904 20.036-2.7293 14.848-7.0443 29.639-12.502 44.168-9.0402 6.6181-19.668 12.642-31.953 17.893-4.0855-2.5898-8.4418-5.0629-13.186-7.366-0.31586-8.3943-0.99783-16.907-2.0518-25.534 7.2502-22.56 12.466-45.552 15.074-68.053 0.99387-8.5759 1.4948-17.022 1.7508-25.396 0.34-0.21898 0.62241-0.46612 0.95752-0.68713zm-2.0792 1.4842c-0.27045 8.0717-0.7659 16.226-1.7235 24.489-2.5099 21.657-7.4108 43.798-14.253 65.552-3.184-24.366-9.422-49.405-18.767-74.209 2.515-0.86246 5.145-1.663 7.5506-2.5836 10.175-3.8936 19.306-8.3079 27.193-13.248zm-328.26 8.8776c1.5808 0.69904 3.0109 1.4728 4.6507 2.1438 22.588 9.2439 50.736 15.772 81.141 19.734-3.2394 21.468-5.5191 43.168-6.894 64.48-20.597 2.9506-39.997 7.1063-57.204 12.533-11.016-31.736-18.578-64.812-21.694-96.527-0.067383-0.68582-0.073509-1.3495-0.13681-2.0339 0.044235-0.10983 0.092415-0.21996 0.13681-0.3298zm-1.0943 2.5011c3.1252 31.788 10.689 64.925 21.722 96.72-5.8992 1.8876-11.605 3.8658-16.934 6.0467-9.4637 3.8729-17.945 8.2284-25.251 13.028-0.15989-0.06781-0.33301-0.12433-0.49242-0.19238-0.98857-36.998 5.7209-76.924 20.956-115.6zm-66.068 1.7591c-0.25946 5.6548-0.26064 11.367-0.027338 17.096-2.6164 3.1192-4.9181 6.3646-7.0034 9.7297 1.7062-8.9935 4.0465-17.953 7.0308-26.825zm359.64 3.0508c9.6167 25.521 15.904 51.286 18.986 76.298-2.2836 7.0922-4.7929 14.11-7.4959 21.081-1.3235-0.53894-2.5245-1.1286-3.8847-1.6491-23.052-8.8217-51.347-14.895-81.689-18.415 3.2931-20.728 5.9269-41.834 7.7968-62.666 24.189-3.1565 46.75-8.0502 66.286-14.65zm78.187 7.2285c0.38998 0.36516 0.87964 0.70358 1.2584 1.0719 1.3965 1.3578 2.6992 2.7507 3.9394 4.1502-0.089081 3.6723-0.26382 7.3549-0.54715 11.049-1.3053-5.4346-2.8917-10.863-4.6507-16.271zm6.2648 6.4864c8.3742 9.9188 12.831 20.848 12.338 32.735-0.70544 8.376-3.5605 16.168-8.1798 23.417-0.1586-14.102-1.8215-28.39-4.979-42.657 0.42068-4.5101 0.68542-9.0125 0.82074-13.495zm-290.04 1.017c7.6655 0.98106 15.431 1.8282 23.336 2.4736 1.2712 19.323 3.0507 38.74 5.0337 57.966-12.018 0.8483-23.792 2.0949-35.263 3.7105 1.375-21.208 3.6715-42.791 6.894-64.15zm138.18 0.055c-1.8678 20.743-4.4896 41.753-7.7694 62.391-5.897-0.67056-11.861-1.2315-17.892-1.7041-1.1981-18.875-3.0142-38.227-5.1431-57.663 10.465-0.69983 20.739-1.7342 30.804-3.0233zm-292.2 0.9345c0.47508 9.7148 1.6388 19.51 3.447 29.299 3.2387 17.534 8.6971 35.022 15.785 52.084-5.3989-3.5478-10.441-7.2213-14.663-11.214-6.7236-6.358-11.802-13.296-15.101-20.779-0.24946-12.743 0.71786-25.607 2.9546-38.424 2.1813-3.8168 4.7155-7.4549 7.578-10.966zm178.48 1.5941c13.361 1.0626 26.985 1.655 40.625 1.759 13.799 0.10526 27.614-0.27356 41.2-1.1544 2.1225 19.371 3.9182 38.657 5.1158 57.471-15.54-1.1846-31.398-1.7977-47.273-1.6766-11.628 0.088684-23.211 0.61636-34.662 1.4017-1.9799-19.172-3.7346-38.531-5.0064-57.801zm-187.64 12.396c-1.7266 10.911-2.5543 21.85-2.4895 32.707-2.1009-5.6036-3.2304-11.5-3.2008-17.728 0.000175-0.037216-0.000241-0.072739 0-0.10996 0.00007-0.009262-0.00007-0.018204 0-0.027481 0.002182-0.008514-0.002178-0.018967 0-0.027481 1.318-5.1733 3.2736-10.097 5.6903-14.814zm452 0.6597c2.8324 13.738 4.3023 27.504 4.3498 41.063-3.6715 5.3891-8.3036 10.487-13.898 15.254-1.4318 1.2204-3.1573 2.3398-4.7054 3.5181 5.1679-14.045 9.2375-28.347 11.873-42.684 1.052-5.7228 1.765-11.437 2.3801-17.151zm14.527 17.178c-0.25464 38.109-9.7897 74.041-26.4 105.76 8.8909-19.672 14.526-41.017 16.496-63.16 0.54086-6.0788 0.8057-12.211 0.79343-18.388 5.0275-7.4604 8.1943-15.534 9.1099-24.214zm-471.97 8.9326c0.70578 3.0328 1.7354 5.9841 2.982 8.8502 0.12362 6.0419 0.48736 12.062 1.149 18.03 1.2692 11.45 3.572 22.713 6.7572 33.697-6.2006-19.233-9.9462-39.547-10.888-60.577zm4.1857 11.489c3.3578 6.7147 8.137 12.96 14.226 18.717 4.6053 4.355 10.152 8.362 16.113 12.176 3.4046 8.0415 7.1284 15.97 11.298 23.747-1.4818 1.5212-2.8911 3.0787-4.1583 4.6725-8.5205 10.717-11.948 23.132-8.9185 37.022-14.934-24.573-24.332-52.279-27.521-81.053-0.56105-5.0616-0.86616-10.165-1.0396-15.282zm457.55 5.497c-0.036407 5.5627-0.25098 11.093-0.73868 16.573-2.3335 26.226-9.8127 51.335-21.804 73.825 2.8647-14.932-1.4641-28.088-11.244-39.276 5.5529-10.563 10.318-21.449 14.472-32.487 2.0688-1.5264 4.2787-2.9904 6.1554-4.5899 5.1652-4.4023 9.5809-9.0832 13.159-14.045zm-228.98 1.3467c15.917-0.1214 31.806 0.48322 47.383 1.6766 1.323 21.075 1.8947 41.175 2.0791 60.494-16.839 1.3479-33.962 2.1164-51.103 2.1164-8.3975 0-16.774-0.198-25.114-0.52222-2.968-19.83-5.5344-40.872-7.7694-62.363 11.408-0.78207 22.94-1.3134 34.525-1.4017zm-35.646 1.4567c2.2281 21.451 4.8087 42.446 7.7695 62.253-15.162-0.61621-30.112-1.7986-44.674-3.4906-0.00737-0.54013-0.04866-1.0525-0.054718-1.5942-0.19144-17.173 0.37418-35.154 1.532-53.431 11.519-1.6281 23.349-2.8852 35.428-3.738zm84.123 0.3298c5.956 0.46872 11.848 1.0147 17.673 1.6766-3.2131 20.061-7.1054 39.655-11.49 58.268-1.3647 0.121-2.7341 0.24524-4.1036 0.3573-0.18515-19.259-0.76517-39.305-2.0791-60.302zm18.74 1.814c30.29 3.5099 58.53 9.554 81.47 18.332 1.3549 0.51846 2.5397 1.1122 3.8574 1.6491-3.021 7.7258-6.2835 15.319-9.7939 22.812-26.134 7.3993-55.902 12.443-86.941 15.254 4.3617-18.554 8.209-38.07 11.408-58.048zm93.507 0.5222c0.87152 7.6064 1.4572 15.117 1.7509 22.538-2.6949-1.2827-5.6255-2.4623-8.5081-3.6555 2.4225-6.247 4.6699-12.535 6.7572-18.882zm-232.92 1.2368c-1.1484 18.219-1.6956 36.138-1.5046 53.266 0.005508 0.49493 0.020737 0.9631 0.027344 1.4567-14.168-1.6758-27.878-3.8678-40.981-6.5689-5.2672-11.604-10.046-23.522-14.308-35.703 17.06-5.3762 36.319-9.51 56.766-12.451zm-57.833 12.753c4.183 11.961 8.8827 23.686 14.034 35.098-16.286-3.4131-31.667-7.5184-45.44-12.533-3.4326-1.2498-6.6086-2.6355-9.8486-3.9853 7.0878-4.5927 15.231-8.7908 24.375-12.533 5.3111-2.1735 10.992-4.1645 16.879-6.0467zm338 0.4673c-3.9539 10.292-8.4191 20.443-13.596 30.316-4.4822-4.9373-10.136-9.4453-16.578-13.633 11.441-4.9368 21.511-10.53 30.175-16.683zm-54.414 5.442c3.0433 1.2611 6.1445 2.487 8.9731 3.8479 0.14416 4.0647 0.21808 8.0998 0.19153 12.093-0.83539 0.29901-1.5894 0.64087-2.4348 0.93448-5.1654 1.7937-10.57 3.4687-16.086 5.0572 3.3507-7.2046 6.456-14.517 9.3561-21.933zm-350.17 1.0169c6.7915 4.2116 14.253 8.1107 22.488 11.654 0.005051 0.17255-0.005402 0.34973 0 0.52222-4.5061 3.0761-8.506 6.332-11.982 9.7846-3.8475-7.1908-7.3135-14.542-10.505-21.96zm360.27 3.4356c4.2354 2.0815 8.2356 4.2603 11.928 6.5689-3.7633 1.5832-7.7504 3.0513-11.764 4.5076 0.019043-3.6634-0.040405-7.3539-0.16415-11.076zm12.995 7.311c6.7665 4.3436 12.621 9.061 17.208 14.182-10.757 20.311-24.094 39.392-39.258 56.564 4.8224-16.236 7.8556-34.014 8.9185-52.826 0.24036-4.254 0.23257-8.6221 0.27356-12.973 4.3992-1.5889 8.7547-3.2047 12.858-4.9473zm-349.08 1.5941c3.4871 1.4659 6.935 2.9655 10.642 4.3152 14.049 5.115 29.728 9.2998 46.343 12.753 4.4834 9.8462 9.2145 19.5 14.362 28.722 7.5998 13.613 15.962 26.329 24.868 38.067-12.142 3.7262-22.3 8.3039-29.218 13.77-1.4355 1.1342-2.6764 2.3339-3.83 3.5455-22.908-17.701-43.118-39.555-59.748-63.765-2.1565-11.346-3.5355-23.167-4.0215-35.346-0.020943-0.52469 0.017792-1.0682 0-1.5941 0.21856-0.14777 0.38101-0.32034 0.60184-0.46726zm-1.6961 1.2918c0.009972 0.2717-0.010826 0.55319 0 0.82452 0.45501 11.402 1.7493 22.455 3.6658 33.147-5.405-8.0175-10.507-16.198-15.074-24.654 3.2764-3.2813 7.1672-6.3646 11.408-9.3174zm336.82 2.4736c-0.045624 4.1919-0.04187 8.405-0.27356 12.506-1.1112 19.667-4.4347 38.139-9.6571 54.915-2.5792 2.8642-5.0838 5.8043-7.7694 8.5478-8.4202 8.6016-17.444 16.449-26.81 23.692-3.4994-6.6768-10.514-12.168-19.889-16.574-0.95142-0.44711-2.0638-0.81158-3.064-1.2368 8.1084-9.3784 15.796-19.391 22.898-30.069 9.5044-14.289 17.93-29.672 25.415-45.598 5.8845-1.6757 11.604-3.4791 17.098-5.387 0.71374-0.24783 1.3451-0.54526 2.0518-0.79706zm-20.545 6.5414c-7.3709 15.581-15.642 30.642-24.95 44.636-7.1455 10.743-14.876 20.82-23.035 30.234-12.086-4.964-27.412-8.4144-44.373-10.417 0.47818-9.6096 0.81586-19.615 0.93021-30.206 1.2856-4.7866 2.5656-9.5795 3.7752-14.54 0.36832-1.5102 0.70599-3.0929 1.0669-4.6175 30.873-2.7756 60.484-7.7715 86.586-15.089zm-328.5 1.0994c4.9236 9.0974 10.418 17.939 16.305 26.523 4.1331 21.575 11.35 41.265 21.256 58.268-13.802-5.9867-25.383-12.74-33.978-20.092-5.6596-6.7375-10.795-13.832-15.457-21.218-4.2144-14.843-0.95832-27.824 8.0157-39.111 1.1837-1.4889 2.4786-2.942 3.8574-4.3702zm380.98 2.0614c9.6992 11.25 13.835 24.273 10.532 39.304-13.301 22.362-36.335 38.792-64.782 50.325 5.302-9.5239 9.7822-19.969 13.323-31.278 15.858-17.632 29.761-37.324 40.926-58.351zm-308.7 3.9029c12.943 2.6452 26.473 4.7822 40.434 6.4315 0.31622 20.898 1.6752 40.507 3.9668 58.213-1.8286 0.4873-3.6394 0.98782-5.3894 1.5116-8.977-11.787-17.403-24.572-25.059-38.286-4.9934-8.9446-9.5844-18.331-13.952-27.87zm41.556 6.5689c14.596 1.6939 29.59 2.8768 44.784 3.4906 0.22253 1.4795 0.40311 3.0972 0.62918 4.5625 2.2931 14.859 4.7648 28.838 7.3865 41.86-17.536 1.4346-34.316 4.0753-48.86 7.8607-2.2712-17.566-3.6201-37.045-3.9394-57.773zm126.94 1.5667c-0.33347 1.4053-0.64511 2.8673-0.98483 4.2602-0.86923 3.564-1.799 6.9684-2.7083 10.444 0.028259-4.6348-0.1235-9.5889-0.16418-14.375 1.2878-0.10507 2.5737-0.21686 3.8574-0.3298zm-4.9517 0.4122c0.049683 5.8883 0.24655 12.045 0.19153 17.7-0.002502 0.26077-0.024628 0.48181-0.027374 0.7421-2.7783 10.327-5.724 20.166-8.8364 29.491-11.221-0.97064-22.905-1.4216-34.689-1.2643-5.0557 0.067444-10.12 0.22684-15.156 0.49472-3.207 0.17053-6.3739 0.43716-9.5476 0.68713-2.6307-13.039-5.1167-27.057-7.4138-41.942-0.21518-1.3944-0.38988-2.9353-0.60188-4.3426 8.2982 0.32053 16.622 0.52222 24.977 0.52222 17.138 0 34.265-0.74506 51.103-2.0889zm-217.87 14.402c16.375 23.387 36.117 44.465 58.38 61.676-1.7675 2.0002-3.1336 4.0902-4.0489 6.2941-6.8641-1.9362-13.55-3.956-19.807-6.1841-4.6136-1.6429-9.0091-3.3751-13.241-5.1672-9.8197-16.482-16.998-35.627-21.284-56.619zm217.9 8.9876c-0.14487 8.7534-0.39163 17.261-0.79336 25.314-2.2411-0.25546-4.4949-0.48056-6.7846-0.68713 2.6236-7.8868 5.1914-16.019 7.5779-24.626zm153.53 8.5203c-0.72806 1.2482-1.4862 2.4805-2.2433 3.7105-8.9025 13.467-19.119 26.004-30.558 37.352-0.055115 0.054657-0.10901 0.11029-0.16415 0.16489-14.679 13.578-31.91 24.771-51.35 32.927 7.9784-7.6802 14.845-16.97 20.792-27.348 27.223-10.821 49.541-26.168 63.523-46.807zm-196.89 15.859c11.644-0.15195 23.191 0.30984 34.278 1.2643-6.5369 19.412-13.746 36.4-21.503 49.638-8.207 0.13016-16.424 0.031372-24.622-0.24734-4.456-13.248-8.7252-30.094-12.666-49.473 3.123-0.24616 6.229-0.51935 9.3835-0.68716 5.0216-0.26706 10.086-0.42889 15.128-0.49472zm145.73 0.1649c-3.5442 10.811-7.9487 20.803-13.131 29.904-5.9065 2.3378-11.998 4.5099-18.329 6.4315-0.3063-1.9759-0.9469-3.8536-1.7782-5.6619 9.5008-7.3252 18.637-15.282 27.166-23.994 2.0995-2.1447 4.0385-4.4603 6.0733-6.6789zm-171.34 1.0994c3.9111 19.27 8.152 36.067 12.612 49.363-1.7226-0.0625-3.4512-0.084961-5.1705-0.16492-8.9122-0.41458-17.738-1.1396-26.482-2.0064-9.9504-8.116-19.42-17.653-28.369-28.282-0.58009-3.5364-1.0663-7.2951-1.5594-11.022 14.539-3.7936 31.376-6.4482 48.969-7.8882zm61.034 0.0825c2.4012 0.21582 4.766 0.47269 7.1128 0.7421-0.93259 18.091-2.5042 34.246-4.7054 47.714-7.8904 0.55469-15.819 0.95194-23.801 1.0994 7.7451-13.315 14.912-30.242 21.393-49.555zm8.2072 0.8795c16.705 1.9857 31.786 5.3192 43.662 10.142-12.377 14.161-25.823 26.618-40.188 36.747-2.6932 0.24756-5.4131 0.40689-8.1251 0.60468 2.1883-13.452 3.7271-29.533 4.6507-47.494zm-233.14 1.1544c0.052677 0.044891 0.11127 0.09256 0.16415 0.13742 14.367 16.995 31.815 31.749 52.088 43.316 1.6115 1.7363 3.2542 3.4294 4.9516 5.0572 6.64 6.3675 13.955 11.84 21.886 16.381-30.955-15.69-57.919-37.929-79.09-64.892zm4.7054 3.7104c8.3536 6.2084 18.75 11.895 30.804 17.013 4.3229 7.2153 9.0501 14.003 14.39 20.092-17.24-10.23-32.365-22.795-45.194-37.105zm109.13 2.3637c0.39981 3.0185 0.80106 6.0639 1.2584 8.96-2.0427-2.4688-4.0343-5.0316-6.0186-7.6133 1.5508-0.4588 3.1466-0.91574 4.7601-1.3467zm-5.9091 1.649c2.4754 3.2333 4.9288 6.4795 7.4959 9.5373 1.4842 9.0049 3.3112 17.266 5.362 24.874-9.7794-1.4582-19.333-3.1812-28.534-5.1672-5.9236-3.7847-11.69-7.8653-17.317-12.176 1.0973-1.152 2.2851-2.2897 3.6659-3.3807 6.8304-5.3968 17.058-9.9674 29.327-13.688zm169.94 1.7041c1.0977 0.46161 2.3001 0.88669 3.3376 1.3742 9.3496 4.394 16.138 9.8226 19.451 16.299-5.0539 3.8699-10.192 7.5778-15.484 10.994-14.804 3.4149-30.374 5.8952-46.343 7.4484 13.952-10.041 26.994-22.3 39.039-36.115zm-160.94 9.6747c8.213 9.601 16.878 18.255 25.935 25.781-7.0422-0.72638-14.026-1.5256-20.874-2.5286-1.9353-7.1128-3.6207-14.869-5.061-23.252zm-79.774 2.3637c3.845 1.5954 7.8389 3.1419 11.982 4.6175 6.2373 2.2212 12.892 4.2535 19.725 6.1841-1.4423 4.1845-1.2709 8.7085 0.82068 13.468 1.05 2.389 2.5954 4.8256 4.6234 7.3384-7.4108-3.1129-14.549-6.581-21.339-10.444-5.8722-6.3402-11.11-13.487-15.812-21.163zm37.042 4.1502c4.931 3.7788 9.9952 7.3397 15.156 10.719-6.5444-1.4623-12.84-3.0977-18.986-4.8099 0.86378-2.044 2.1576-4.0127 3.83-5.9093zm226.93 2.5561c0.75464 1.6957 1.3162 3.4402 1.5867 5.2771-0.59561 0.17798-1.1518 0.4028-1.7508 0.57718-4.0418 1.1767-8.2096 2.2273-12.393 3.2433 4.2834-2.8516 8.4335-5.9484 12.557-9.0976zm20.108 0.0275c-6.1043 10.415-13.133 19.715-21.311 27.293-0.26749 0.24777-0.55112 0.47012-0.82074 0.7146-1.1751 0.46823-2.3928 0.87341-3.5838 1.3192 6.4855-8.685 9.0773-16.439 8.3713-23.307 5.9732-1.807 11.738-3.8432 17.344-6.0192zm-251.33 4.3701c7.0434 1.9664 14.303 3.7785 21.858 5.4145 10.648 6.7917 21.742 12.695 33.212 17.563 1.6359 4.4908 3.3568 8.6953 5.2526 12.368-19.258-2.4612-37.152-7.213-53.593-13.88-2.6954-3.0305-4.7115-5.9528-5.9365-8.7402-2.0062-4.5648-2.1632-8.7864-0.79338-12.726zm232.89 2.0064c0.62003 6.8102-2.0791 14.657-9.1373 23.637-21.142 7.653-44.73 11.749-70.472 11.489 0.39221-1.2517 0.80496-2.4132 1.1764-3.7655 21.551-5.2178 42.165-14.49 61.307-26.825 5.2954-1.2267 10.514-2.5616 15.594-4.0403 0.52252-0.15213 1.012-0.3399 1.532-0.49472zm35.045 1.4842c-15.894 13.164-33.574 24.283-52.608 32.982l0.0274-0.055c0.97736-0.93362 1.8123-1.8333 2.7083-2.7484 4.153-2.7316 8.1017-5.8135 11.846-9.2075 13.808-5.5391 26.502-12.627 38.026-20.971zm-243.04 2.5561c8.5168 1.7791 17.271 3.3685 26.263 4.6999 1.0572 3.8295 2.2166 7.3858 3.4197 10.802-10.204-4.3921-20.127-9.5657-29.683-15.502zm187.81 1.1543c-18.183 11.392-37.642 19.968-57.942 24.956 0.93176-3.5163 1.803-7.3857 2.5989-11.516 3.2985-2.0211 6.556-4.1755 9.7665-6.4315 15.678-1.455 30.963-3.7759 45.577-7.0087zm-160.31 3.738c7.266 1.0565 14.68 1.8933 22.159 2.6386 12.094 9.8231 24.879 17.591 38.218 22.84-0.41965 0.034027-0.83974 0.078003-1.2584 0.10998-19.165-1.9294-37.785-6.9116-55.535-14.402-1.264-3.5141-2.4756-7.2085-3.5838-11.186zm-66.806 1.6766c6.5337 3.5693 13.35 6.8129 20.436 9.7022 4.9809 5.5774 12.777 11.509 23.089 17.7-15.642-5.1959-29.385-13.675-41.063-24.874-0.8472-0.81244-1.6364-1.6884-2.4621-2.5287zm90.99 1.1819c8.1996 0.78375 16.469 1.4259 24.813 1.814 1.8566 0.086365 3.7205 0.098877 5.5809 0.16489 2.8263 8.2834 5.7242 15.194 8.6996 20.339-0.15437 0.014038-0.31078 0.041046-0.46506 0.054901-13.46-5.0119-26.388-12.624-38.628-22.373zm88.391 0.5772c-2.4283 1.6722-4.8814 3.2724-7.3591 4.8098 0.26251-1.4117 0.54636-2.8107 0.79336-4.2877 2.1908-0.15869 4.3867-0.33112 6.5658-0.52219zm-7.7148 0.6046c-0.28879 1.7186-0.62067 3.3747-0.93012 5.0023-10.635 6.4745-21.712 11.668-33.157 15.392-1.6532 0.19504-3.2851 0.33002-4.9243 0.49475 0.034882-0.041229 0.074509-0.068604 0.10942-0.10992 0.013306-0.015778 0.014053-0.039215 0.027359-0.054962 5.0882-5.0595 9.9925-11.717 14.691-19.652 8.1092-0.14032 16.165-0.51208 24.184-1.0719zm-49.134 0.8246c7.8767 0.26141 15.777 0.36279 23.664 0.24734-4.569 7.657-9.2997 14.047-14.198 18.91l-0.0274 0.0275h-0.027344c-0.27152 0.32211-0.52333 0.51062-0.79336 0.82455-2.9199-4.9968-5.8116-11.809-8.6175-20.009zm47.957 5.6344c-0.77805 3.9478-1.6148 7.6381-2.5169 10.994-6.7882 1.6179-13.676 2.8201-20.627 3.6005-2.1154-0.20355-4.2333-0.39835-6.3743-0.65964 10.158-3.5552 20.015-8.2224 29.518-13.935zm-147.67 1.869c16.187 6.3625 33.761 10.874 52.608 13.22 1.8895 3.5053 3.8951 6.6243 6.046 9.2624-11.836 0.10181-22.905-1.3644-33.184-4.2602-11.319-6.4165-19.912-12.54-25.47-18.222zm48.039 0.2473c15.607 6.495 31.859 11.052 48.586 13.33-15.105 0.79236-29.581 0.30499-43.361-1.3742-0.069763-0.13202-0.14944-0.224-0.21887-0.35727-1.7965-3.4481-3.4393-7.3873-5.0064-11.599zm170.52 2.0339c-1.7088 1.4598-3.4619 2.8505-5.2526 4.1777 0.96466-1.0974 1.9446-2.2012 2.7904-3.2707 0.82376-0.30057 1.6458-0.59589 2.4621-0.90704zm-4.596 1.704c-1.4787 1.7784-3.133 3.6054-4.9517 5.4695-18.611 12.244-41.27 17.496-67.572 13.413 0.5379-1.153 1.1065-2.156 1.6141-3.4631 0.52487-1.3518 0.98419-2.9955 1.4773-4.5075 25.283 0.28967 48.534-3.5797 69.432-10.912zm-69.077 6.3491c-0.35348 1.2683-0.77719 2.2884-1.149 3.4631-4.5728-0.069397-9.1917-0.25442-13.897-0.60468 5.0665-0.72644 10.071-1.6894 15.046-2.8585zm-28.451 2.6661c0.045654 0.005829 0.091125-0.005859 0.13683 0 0.94164 0.12036 1.8535 0.19299 2.7904 0.30231-1.8904 0.15265-3.7902 0.18744-5.6902 0.27481 0.42416-0.13294 0.8352-0.30273 1.2584-0.43973 0.50542-0.059662 0.99799-0.07489 1.5047-0.13739zm-62.429 0.4122c15.518 1.836 31.885 2.2079 49.051 0.90704 0.99147 0.099274 1.9876 0.19186 2.9819 0.27478-0.87993 0.22412-1.7423 0.50833-2.6263 0.7146h-0.027344c-15.423 4.6346-29.868 6.8929-43.361 7.1461-2.1328-2.5175-4.1169-5.6086-6.0186-9.0425zm55.316 0.3024c-0.055588 0.015594-0.10858 0.039368-0.16415 0.054962-0.027069-0.00943-0.054977-0.018097-0.082047-0.027466 0.082016-0.008026 0.16414-0.01947 0.2462-0.027496zm15.265 0.1099c6.3815 0.60947 12.649 0.97067 18.794 1.0719-0.44958 1.3622-0.8652 2.8712-1.3405 4.0952-0.54245 1.3969-1.1481 2.4734-1.7235 3.683-9.0872-1.4965-18.606-4.1004-28.534-7.9157 4.2915-0.14636 8.5625-0.46106 12.803-0.93448zm-16.059 1.2093c3.4293 6.1464 6.693 10.933 9.7939 14.155 1.725 1.7925 3.4184 3.1489 5.0611 4.0953-1.78 0.080566-3.5528 0.22543-5.3346 0.27481-12.021 0.33316-24.004-0.065521-35.4-1.0719 7.5126-1.6659 15.733-7.2182 24.676-17.123 0.40196-0.10556 0.80269-0.22061 1.2038-0.32983zm1.3952 0.1924c10.422 4.1138 20.392 6.8768 29.929 8.4653-1.3726 2.7191-2.7975 5.094-4.3224 6.7063-1.003 1.0604-2.013 1.8277-3.064 2.3912-2.2354 0.17029-4.4809 0.26532-6.7299 0.38477-2.0625-0.76709-4.2668-2.2817-6.6204-4.7274-2.8703-2.9826-5.9588-7.5236-9.192-13.22zm91.099 0.1649c-0.80316 0.45804-1.5146 0.96201-2.3527 1.4017-1.3926 0.57318-2.807 1.1018-4.213 1.6491 2.2344-0.92151 4.4233-1.9571 6.5657-3.0508zm-96.024 0.6047c-10.355 10.978-19.622 16.12-27.658 15.941-1.3758-0.14832-2.7236-0.30008-4.0762-0.46719-4.4641-1.0849-8.5962-3.8122-12.365-7.9707 13.345-0.32776 27.595-2.5666 42.759-7.1186 0.01947-0.005829 0.035217-0.021606 0.054672-0.027496 0.43253-0.1011 0.85429-0.25195 1.2858-0.35727zm-86.12 1.2643c2.0216 0.70389 4.0419 1.3882 6.128 1.9789 0.71932 0.40692 1.308 0.79974 2.0518 1.2094-2.7649-1.0019-5.4644-2.088-8.1798-3.1883zm173.17 2.1163c-12.979 4.8898-26.505 8.6414-40.461 11.214-5.5029 0.82468-11.117 1.4975-16.825 1.9789 0.53088-0.42401 1.0544-0.86789 1.5594-1.4017 1.6834-1.7797 3.2048-4.3577 4.6508-7.2835 18.898 2.9721 35.994 1.2081 51.076-4.5075zm-163.3 0.7971c9.6041 2.3636 19.864 3.5362 30.75 3.3807 2.8553 3.2864 5.9501 5.7563 9.2467 7.3659-7.551-1.0709-14.661-2.4449-21.12-4.0952-0.85503-0.22415-1.693-0.4812-2.5442-0.7146-5.6722-1.5602-10.872-3.3104-15.265-5.3046-0.012146-0.00647-0.015244-0.020996-0.027374-0.027466-0.38956-0.20859-0.65645-0.39682-1.0396-0.60471z" fill-rule="evenodd" stroke-width="1.174" fill="#00007f"/>
</svg>
